<?xml version="1.0" encoding="UTF-8" standalone="no"?>
<!-- Created with Inkscape (http://www.inkscape.org/) -->

<svg
   xmlns:dc="http://purl.org/dc/elements/1.1/"
   xmlns:cc="http://creativecommons.org/ns#"
   xmlns:rdf="http://www.w3.org/1999/02/22-rdf-syntax-ns#"
   xmlns:svg="http://www.w3.org/2000/svg"
   xmlns="http://www.w3.org/2000/svg"
   xmlns:sodipodi="http://sodipodi.sourceforge.net/DTD/sodipodi-0.dtd"
   xmlns:inkscape="http://www.inkscape.org/namespaces/inkscape"
   width="10cm"
   height="10cm"
   viewBox="0 0 354.33071 354.3307"
   id="svg2"
   version="1.1"
   inkscape:version="0.91 r13725"
   sodipodi:docname="tempus.svg">
  <defs
     id="defs4" />
  <sodipodi:namedview
     id="base"
     pagecolor="#ffffff"
     bordercolor="#666666"
     borderopacity="1.0"
     inkscape:pageopacity="0.0"
     inkscape:pageshadow="2"
     inkscape:zoom="1"
     inkscape:cx="152.97669"
     inkscape:cy="175.93471"
     inkscape:document-units="px"
     inkscape:current-layer="layer1"
     showgrid="false"
     units="cm"
     inkscape:window-width="1920"
     inkscape:window-height="1176"
     inkscape:window-x="1920"
     inkscape:window-y="24"
     inkscape:window-maximized="1"
     objecttolerance="20"
     gridtolerance="1"
     guidetolerance="1" />
  <metadata
     id="metadata7">
    <rdf:RDF>
      <cc:Work
         rdf:about="">
        <dc:format>image/svg+xml</dc:format>
        <dc:type
           rdf:resource="http://purl.org/dc/dcmitype/StillImage" />
        <dc:title />
      </cc:Work>
    </rdf:RDF>
  </metadata>
  <g
     inkscape:label="Layer 1"
     inkscape:groupmode="layer"
     id="layer1"
     transform="translate(0,-698.0315)">
    <circle
       id="path3336"
       cx="177.10001"
       cy="875.36218"
       r="175.912"
       style="fill:#000040;fill-opacity:1;stroke:#000000;stroke-width:1.49925005;stroke-miterlimit:4;stroke-dasharray:none;stroke-opacity:1" />
    <path
       sodipodi:type="star"
       style="fill:#ffffff"
       id="path3347"
       sodipodi:sides="5"
       sodipodi:cx="83.146996"
       sodipodi:cy="771.84368"
       sodipodi:r1="13.493249"
       sodipodi:r2="6.7466247"
       sodipodi:arg1="1.5707963"
       sodipodi:arg2="2.1991149"
       inkscape:flatsided="false"
       inkscape:rounded="0"
       inkscape:randomized="0"
       d="m 83.146996,785.33694 -3.965567,-8.03512 -8.867276,-1.28849 6.416421,-6.25446 -1.514711,-8.83145 7.931133,4.16964 7.931132,-4.16964 -1.514711,8.83145 6.416421,6.25446 -8.867276,1.28849 z"
       inkscape:transform-center-y="1.7179848" />
    <path
       sodipodi:type="star"
       style="fill:#ffffff"
       id="path3347-8"
       sodipodi:sides="5"
       sodipodi:cx="282"
       sodipodi:cy="788.64337"
       sodipodi:r1="18"
       sodipodi:r2="9"
       sodipodi:arg1="1.5707963"
       sodipodi:arg2="2.1991149"
       inkscape:flatsided="false"
       inkscape:rounded="0"
       inkscape:randomized="0"
       d="m 282,806.64337 -5.29007,-10.71885 -11.82895,-1.71884 8.55951,-8.34346 -2.02062,-11.78115 10.58013,5.5623 10.58013,-5.5623 -2.02062,11.78115 8.55951,8.34346 -11.82895,1.71884 z"
       inkscape:transform-center-y="1.2959039"
       transform="matrix(0.48689087,0,0,0.565455,153.33431,337.89419)" />
    <path
       sodipodi:type="star"
       style="fill:#ffffff"
       id="path3347-8-9"
       sodipodi:sides="5"
       sodipodi:cx="282"
       sodipodi:cy="788.64337"
       sodipodi:r1="18"
       sodipodi:r2="9"
       sodipodi:arg1="1.5707963"
       sodipodi:arg2="2.1991149"
       inkscape:flatsided="false"
       inkscape:rounded="0"
       inkscape:randomized="0"
       d="m 282,806.64337 -5.29007,-10.71885 -11.82895,-1.71884 8.55951,-8.34346 -2.02062,-11.78115 10.58013,5.5623 10.58013,-5.5623 -2.02062,11.78115 8.55951,8.34346 -11.82895,1.71884 z"
       inkscape:transform-center-y="0.89823279"
       transform="matrix(-0.34428384,0.34428384,-0.39983707,-0.39983707,500.50073,1167.5613)"
       inkscape:transform-center-x="-0.89820738" />
    <path
       sodipodi:type="star"
       style="fill:#ffffff"
       id="path3347-0"
       sodipodi:sides="5"
       sodipodi:cx="258"
       sodipodi:cy="900.64337"
       sodipodi:r1="18"
       sodipodi:r2="9"
       sodipodi:arg1="1.5707963"
       sodipodi:arg2="2.1991149"
       inkscape:flatsided="false"
       inkscape:rounded="0"
       inkscape:randomized="0"
       d="m 258,918.64337 -5.29007,-10.71885 -11.82895,-1.71884 8.55951,-8.34346 -2.02062,-11.78115 10.58013,5.5623 10.58013,-5.5623 -2.02062,11.78115 8.55951,8.34346 -11.82895,1.71884 z"
       inkscape:transform-center-y="-0.86970175"
       transform="matrix(0.53006492,0.53006492,-0.53006492,0.53006492,619.47536,356.2102)"
       inkscape:transform-center-x="-0.86970239" />
    <path
       sodipodi:type="star"
       style="fill:#ffffff"
       id="path3347-0-3"
       sodipodi:sides="5"
       sodipodi:cx="258"
       sodipodi:cy="900.64337"
       sodipodi:r1="18"
       sodipodi:r2="9"
       sodipodi:arg1="1.5707963"
       sodipodi:arg2="2.1991149"
       inkscape:flatsided="false"
       inkscape:rounded="0"
       inkscape:randomized="0"
       d="m 258,918.64337 -5.29007,-10.71885 -11.82895,-1.71884 8.55951,-8.34346 -2.02062,-11.78115 10.58013,5.5623 10.58013,-5.5623 -2.02062,11.78115 8.55951,8.34346 -11.82895,1.71884 z"
       inkscape:transform-center-y="-0.21742543"
       transform="matrix(0.13251623,0.13251623,-0.13251623,0.13251623,316.41685,863.06084)"
       inkscape:transform-center-x="-0.2174271" />
    <path
       sodipodi:type="star"
       style="fill:#ffffff"
       id="path3347-0-3-4"
       sodipodi:sides="5"
       sodipodi:cx="258"
       sodipodi:cy="900.64337"
       sodipodi:r1="18"
       sodipodi:r2="9"
       sodipodi:arg1="1.5707963"
       sodipodi:arg2="2.1991149"
       inkscape:flatsided="false"
       inkscape:rounded="0"
       inkscape:randomized="0"
       d="m 258,918.64337 -5.29007,-10.71885 -11.82895,-1.71884 8.55951,-8.34346 -2.02062,-11.78115 10.58013,5.5623 10.58013,-5.5623 -2.02062,11.78115 8.55951,8.34346 -11.82895,1.71884 z"
       inkscape:transform-center-y="-0.21742543"
       transform="matrix(0.13251623,0.13251623,-0.13251623,0.13251623,407.11427,727.98922)"
       inkscape:transform-center-x="-0.2174271" />
    <path
       sodipodi:type="star"
       style="fill:#ffffff"
       id="path3347-0-3-8"
       sodipodi:sides="5"
       sodipodi:cx="258"
       sodipodi:cy="900.64337"
       sodipodi:r1="18"
       sodipodi:r2="9"
       sodipodi:arg1="1.5707963"
       sodipodi:arg2="2.1991149"
       inkscape:flatsided="false"
       inkscape:rounded="0"
       inkscape:randomized="0"
       d="m 258,918.64337 -5.29007,-10.71885 -11.82895,-1.71884 8.55951,-8.34346 -2.02062,-11.78115 10.58013,5.5623 10.58013,-5.5623 -2.02062,11.78115 8.55951,8.34346 -11.82895,1.71884 z"
       transform="matrix(0,0.18740625,-0.18740625,0,354.0758,663.2372)"
       inkscape:transform-center-x="0.42949628" />
    <g
       style="font-style:normal;font-weight:normal;font-size:40px;line-height:125%;font-family:sans-serif;text-align:center;letter-spacing:0px;word-spacing:0px;text-anchor:middle;fill:#000000;fill-opacity:1;stroke:#000000;stroke-width:1px;stroke-linecap:butt;stroke-linejoin:miter;stroke-opacity:1"
       id="text4190" />
    <path
       sodipodi:type="star"
       style="fill:#ffffff"
       id="path3347-0-3-8-8"
       sodipodi:sides="5"
       sodipodi:cx="258"
       sodipodi:cy="900.64337"
       sodipodi:r1="18"
       sodipodi:r2="9"
       sodipodi:arg1="1.5707963"
       sodipodi:arg2="2.1991149"
       inkscape:flatsided="false"
       inkscape:rounded="0"
       inkscape:randomized="0"
       d="m 258,918.64337 -5.29007,-10.71885 -11.82895,-1.71884 8.55951,-8.34346 -2.02062,-11.78115 10.58013,5.5623 10.58013,-5.5623 -2.02062,11.78115 8.55951,8.34346 -11.82895,1.71884 z"
       transform="matrix(0,0.18740625,-0.18740625,0,284.36888,974.67233)"
       inkscape:transform-center-x="0.42949628" />
    <g
       style="font-style:normal;font-weight:normal;font-size:40px;line-height:125%;font-family:sans-serif;text-align:center;letter-spacing:0px;word-spacing:0px;text-anchor:middle;fill:#000000;fill-opacity:1;stroke:none;stroke-width:1px;stroke-linecap:butt;stroke-linejoin:miter;stroke-opacity:1"
       id="text4170">
      <path
         d="m 70.270004,859.07221 q 4.59,-1.8 8.91,-4.5 4.32,-2.79 8.01,-7.02 l 5.22,0 0,49.41 10.529996,0 0,6.3 -29.969996,0 0,-6.3 12.06,0 0,-39.06 q -0.99,0.9 -2.43,1.89 -1.35,0.9 -3.06,1.8 -1.62,0.9 -3.42,1.71 -1.8,0.81 -3.51,1.35 l -2.34,-5.58 z"
         style="font-style:normal;font-variant:normal;font-weight:normal;font-stretch:normal;font-size:90px;font-family:'Ubuntu Mono';-inkscape-font-specification:'Ubuntu Mono';fill:#ffffff"
         id="path4199" />
      <path
         d="m 146.32,861.77221 q 0,2.88 -1.17,5.58 -1.08,2.7 -2.97,5.31 -1.8,2.61 -4.14,5.13 -2.34,2.52 -4.77,4.95 -1.35,1.35 -3.15,3.24 -1.8,1.89 -3.42,3.87 -1.62,1.98 -2.7,3.87 -1.08,1.89 -1.08,3.24 l 25.65,0 0,6.3 -33.75,0 q -0.09,-0.45 -0.09,-0.9 0,-0.54 0,-0.99 0,-3.78 1.26,-7.02 1.26,-3.24 3.24,-6.12 1.98,-2.88 4.41,-5.4 2.52,-2.61 4.95,-5.04 1.98,-1.98 3.78,-3.87 1.89,-1.89 3.24,-3.78 1.44,-1.89 2.25,-3.87 0.9,-2.07 0.9,-4.23 0,-2.43 -0.81,-4.14 -0.72,-1.71 -2.07,-2.79 -1.26,-1.17 -2.97,-1.71 -1.71,-0.54 -3.69,-0.54 -2.34,0 -4.32,0.63 -1.89,0.63 -3.42,1.53 -1.44,0.9 -2.52,1.8 -1.08,0.81 -1.62,1.35 l -3.69,-5.22 q 0.72,-0.81 2.16,-1.98 1.44,-1.17 3.42,-2.16 2.07,-1.08 4.59,-1.8 2.52,-0.72 5.4,-0.72 8.73,0 12.87,4.05 4.23,3.96 4.23,11.43 z"
         style="font-style:normal;font-variant:normal;font-weight:normal;font-stretch:normal;font-size:90px;font-family:'Ubuntu Mono';-inkscape-font-specification:'Ubuntu Mono';fill:#ffffff"
         id="path4201" />
      <path
         d="m 182.68,897.50221 q 0,2.7 -1.8,4.77 -1.8,2.07 -4.77,2.07 -3.06,0 -4.86,-2.07 -1.8,-2.07 -1.8,-4.77 0,-2.79 1.8,-4.86 1.8,-2.07 4.86,-2.07 2.97,0 4.77,2.07 1.8,2.07 1.8,4.86 z m 0,-29.07 q 0,2.7 -1.8,4.77 -1.8,2.07 -4.77,2.07 -3.06,0 -4.86,-2.07 -1.8,-2.07 -1.8,-4.77 0,-2.79 1.8,-4.86 1.8,-2.07 4.86,-2.07 2.97,0 4.77,2.07 1.8,2.07 1.8,4.86 z"
         style="font-style:normal;font-variant:normal;font-weight:normal;font-stretch:normal;font-size:90px;font-family:'Ubuntu Mono';-inkscape-font-specification:'Ubuntu Mono';fill:#ffffff"
         id="path4203" />
      <path
         d="m 236.32,861.77221 q 0,2.88 -1.17,5.58 -1.08,2.7 -2.97,5.31 -1.8,2.61 -4.14,5.13 -2.34,2.52 -4.77,4.95 -1.35,1.35 -3.15,3.24 -1.8,1.89 -3.42,3.87 -1.62,1.98 -2.7,3.87 -1.08,1.89 -1.08,3.24 l 25.65,0 0,6.3 -33.75,0 q -0.09,-0.45 -0.09,-0.9 0,-0.54 0,-0.99 0,-3.78 1.26,-7.02 1.26,-3.24 3.24,-6.12 1.98,-2.88 4.41,-5.4 2.52,-2.61 4.95,-5.04 1.98,-1.98 3.78,-3.87 1.89,-1.89 3.24,-3.78 1.44,-1.89 2.25,-3.87 0.9,-2.07 0.9,-4.23 0,-2.43 -0.81,-4.14 -0.72,-1.71 -2.07,-2.79 -1.26,-1.17 -2.97,-1.71 -1.71,-0.54 -3.69,-0.54 -2.34,0 -4.32,0.63 -1.89,0.63 -3.42,1.53 -1.44,0.9 -2.52,1.8 -1.08,0.81 -1.62,1.35 l -3.69,-5.22 q 0.72,-0.81 2.16,-1.98 1.44,-1.17 3.42,-2.16 2.07,-1.08 4.59,-1.8 2.52,-0.72 5.4,-0.72 8.73,0 12.87,4.05 4.23,3.96 4.23,11.43 z"
         style="font-style:normal;font-variant:normal;font-weight:normal;font-stretch:normal;font-size:90px;font-family:'Ubuntu Mono';-inkscape-font-specification:'Ubuntu Mono';fill:#ffffff"
         id="path4205" />
      <path
         d="m 283.93,888.77221 q 0,7.02 -4.5,11.34 -4.41,4.32 -13.5,4.32 -5.22,0 -8.64,-1.35 -3.42,-1.44 -5.49,-3.6 -1.98,-2.25 -2.88,-4.95 -0.81,-2.7 -0.81,-5.31 0,-4.77 2.61,-8.46 2.61,-3.69 6.21,-5.94 -7.65,-4.32 -7.65,-13.23 0,-3.06 1.17,-5.85 1.17,-2.79 3.33,-4.86 2.16,-2.07 5.22,-3.33 3.15,-1.26 7.02,-1.26 4.5,0 7.65,1.35 3.24,1.35 5.22,3.51 1.98,2.07 2.88,4.68 0.9,2.52 0.9,4.95 0,4.77 -2.43,8.28 -2.43,3.42 -5.58,5.49 9.27,4.41 9.27,14.22 z m -28.62,0.54 q 0,1.44 0.54,3.06 0.54,1.53 1.8,2.88 1.26,1.35 3.33,2.25 2.07,0.81 5.04,0.81 2.79,0 4.77,-0.72 2.07,-0.81 3.33,-2.07 1.35,-1.35 1.98,-2.97 0.63,-1.62 0.63,-3.24 0,-5.13 -3.69,-7.83 -3.69,-2.79 -10.17,-4.23 -3.6,1.98 -5.58,4.95 -1.98,2.97 -1.98,7.11 z m 20.16,-28.53 q 0,-1.17 -0.54,-2.61 -0.54,-1.53 -1.71,-2.7 -1.08,-1.26 -2.88,-2.07 -1.8,-0.9 -4.32,-0.9 -2.61,0 -4.41,0.81 -1.71,0.81 -2.88,2.07 -1.17,1.17 -1.71,2.7 -0.45,1.44 -0.45,2.88 0,3.69 2.61,6.93 2.7,3.15 8.82,4.59 3.42,-1.98 5.4,-4.68 2.07,-2.7 2.07,-7.02 z"
         style="font-style:normal;font-variant:normal;font-weight:normal;font-stretch:normal;font-size:90px;font-family:'Ubuntu Mono';-inkscape-font-specification:'Ubuntu Mono';fill:#ffffff"
         id="path4207" />
    </g>
    <path
       sodipodi:type="star"
       style="fill:#ffffff"
       id="path3347-8-9-2"
       sodipodi:sides="5"
       sodipodi:cx="282"
       sodipodi:cy="788.64337"
       sodipodi:r1="18"
       sodipodi:r2="9"
       sodipodi:arg1="1.5707963"
       sodipodi:arg2="2.1991149"
       inkscape:flatsided="false"
       inkscape:rounded="0"
       inkscape:randomized="0"
       d="m 282,806.64337 -5.29007,-10.71885 -11.82895,-1.71884 8.55951,-8.34346 -2.02062,-11.78115 10.58013,5.5623 10.58013,-5.5623 -2.02062,11.78115 8.55951,8.34346 -11.82895,1.71884 z"
       inkscape:transform-center-y="0.89823279"
       transform="matrix(-0.34428384,0.34428384,-0.39983707,-0.39983707,580.74325,943.92935)"
       inkscape:transform-center-x="-0.89820738" />
  </g>
</svg>
